<?xml version="1.0" encoding="UTF-8" standalone="no"?>
<!DOCTYPE svg PUBLIC "-//W3C//DTD SVG 1.1//EN" "http://www.w3.org/Graphics/SVG/1.1/DTD/svg11.dtd">
<svg width="100%" height="100%" viewBox="0 0 150 150" version="1.1" xmlns="http://www.w3.org/2000/svg" xmlns:xlink="http://www.w3.org/1999/xlink" xml:space="preserve" xmlns:serif="http://www.serif.com/" style="fill-rule:evenodd;clip-rule:evenodd;stroke-linecap:round;stroke-linejoin:round;stroke-miterlimit:1.5;">
    <g transform="matrix(0.579319,0,0,0.579319,-77.1014,-168.796)">
        <g transform="matrix(1.0427,0,0,1.0427,-289.959,255.94)">
            <circle cx="529.886" cy="158.14" r="115.884" style="fill:rgb(255,221,85);stroke:rgb(76,39,92);stroke-width:4.97px;"/>
        </g>
        <g transform="matrix(1,0,0,1,0,-1.53985)">
            <rect x="214.208" y="404.186" width="90.833" height="47.083" style="fill:rgb(255,226,178);stroke:black;stroke-width:5.18px;"/>
            <g transform="matrix(1,0,0,1,-149.892,265.728)">
                <path d="M410.614,191.719C415.885,179.456 429.857,174.572 439.062,172.652C444.08,171.605 447.681,171.44 447.681,171.44" style="fill:none;stroke:rgb(76,39,92);stroke-width:5.18px;"/>
            </g>
            <g transform="matrix(1,0,0,1,-152.867,272.12)">
                <path d="M473.357,155.963C473.49,164.169 473.623,172.38 473.357,180.584C473.23,184.494 472.955,188.424 472.177,192.269C467.093,217.429 443.953,238.598 415.342,238.598C383.323,238.598 357.327,212.603 357.327,180.584L357.327,150.939" style="fill:rgb(255,226,178);stroke:rgb(76,39,92);stroke-width:5.18px;"/>
            </g>
            <g transform="matrix(0.838095,0,0,1.18148,-91.411,241.902)">
                <path d="M380.299,155.368L380.299,117.574C380.299,112.236 374.189,107.902 366.664,107.902C359.138,107.902 353.028,112.236 353.028,117.574L353.028,155.368" style="fill:rgb(255,226,178);stroke:rgb(76,39,92);stroke-width:5.06px;"/>
            </g>
            <g transform="matrix(0.838095,0,0,1.60682,-68.4504,171.978)">
                <path d="M380.299,151.839L380.299,115.014C380.299,111.089 374.189,107.902 366.664,107.902C359.138,107.902 353.028,111.089 353.028,115.014L353.028,156.26" style="fill:rgb(255,226,178);stroke:rgb(76,39,92);stroke-width:4.04px;"/>
            </g>
            <g transform="matrix(0.838095,0,0,1.59009,-45.5951,162.45)">
                <path d="M380.299,157.854L380.299,115.089C380.299,111.122 374.189,107.902 366.664,107.902C359.138,107.902 353.028,111.122 353.028,115.089L353.028,157.854" style="fill:rgb(255,226,178);stroke:rgb(76,39,92);stroke-width:4.07px;"/>
            </g>
            <g transform="matrix(0.904153,0,0,1.55557,-46.0599,177.508)">
                <path d="M380.299,157.854L380.299,115.089C380.299,111.122 374.189,107.902 366.664,107.902C359.138,107.902 353.028,111.122 353.028,115.089L353.028,152.301" style="fill:rgb(255,226,178);stroke:rgb(76,39,92);stroke-width:4.07px;"/>
            </g>
            <g transform="matrix(0.838095,0,0,1.59009,1.91706,223.17)">
                <path d="M380.299,134.582L380.299,115.089C380.299,111.122 374.189,107.902 366.664,107.902C359.138,107.902 353.028,111.122 353.028,115.089L353.028,134.582" style="fill:rgb(255,226,178);stroke:rgb(76,39,92);stroke-width:4.07px;"/>
            </g>
        </g>
    </g>
</svg>
