<?xml version="1.0" encoding="UTF-8" standalone="no"?>
<!DOCTYPE svg PUBLIC "-//W3C//DTD SVG 1.1//EN" "http://www.w3.org/Graphics/SVG/1.1/DTD/svg11.dtd">
<svg width="100%" height="100%" viewBox="0 0 150 150" version="1.1" xmlns="http://www.w3.org/2000/svg" xmlns:xlink="http://www.w3.org/1999/xlink" xml:space="preserve" xmlns:serif="http://www.serif.com/" style="fill-rule:evenodd;clip-rule:evenodd;stroke-linecap:round;stroke-linejoin:round;stroke-miterlimit:1.5;">
    <g transform="matrix(0.579319,0,0,0.579319,-247.953,-168.782)">
        <g transform="matrix(1.0427,0,0,1.0427,4.95868,255.916)">
            <circle cx="529.886" cy="158.14" r="115.884" style="fill:rgb(115,218,225);stroke:rgb(76,39,92);stroke-width:4.97px;"/>
        </g>
        <g transform="matrix(1,0,0,1,-3.90216,-0.0404745)">
            <g transform="matrix(1,0,0,1,1.72617,0)">
                <rect x="509.137" y="413.807" width="90.453" height="57.6" style="fill:rgb(255,226,178);stroke:black;stroke-width:5.18px;"/>
            </g>
            <path d="M549.027,419.531L549.027,343.017C549.027,336.71 554.148,331.589 560.455,331.589C566.762,331.589 571.883,336.71 571.883,343.017L572.156,405.203L587.847,345.401C589.6,339.343 595.942,335.847 602.001,337.601C608.059,339.354 611.554,345.697 609.801,351.755L588.53,425.253" style="fill:rgb(255,226,178);stroke:rgb(76,39,92);stroke-width:5.18px;"/>
            <g transform="matrix(1,0,0,1,145.957,271.51)">
                <path d="M410.614,191.719C418.758,172.77 447.681,171.44 447.681,171.44L447.681,163.352L434.113,163.352C427.806,163.352 422.686,158.232 422.686,151.925C422.686,145.617 427.806,140.497 434.113,140.497L461.903,140.497C468.21,140.497 473.331,145.617 473.331,151.925L473.357,155.963C473.49,164.169 473.623,172.38 473.357,180.584C473.23,184.494 472.955,188.424 472.177,192.269C467.093,217.429 443.953,238.598 415.342,238.598C383.323,238.598 357.327,212.603 357.327,180.584L357.327,150.939" style="fill:rgb(255,226,178);stroke:rgb(76,39,92);stroke-width:5.18px;"/>
            </g>
            <g transform="matrix(0.838095,0,0,1.04091,230.299,264.765)">
                <path d="M380.299,118.881C380.299,112.821 374.189,107.902 366.664,107.902C359.138,107.902 353.028,112.821 353.028,118.881L353.028,154.062C353.028,160.121 359.138,165.04 366.664,165.04C374.189,165.04 380.299,160.121 380.299,154.062L380.299,118.881Z" style="fill:rgb(255,226,178);stroke:rgb(76,39,92);stroke-width:5.48px;"/>
            </g>
            <g transform="matrix(0.838095,0,0,0.95,207.405,279.769)">
                <path d="M380.299,119.931C380.299,113.292 374.189,107.902 366.664,107.902C359.138,107.902 353.028,113.292 353.028,119.931L353.028,153.011C353.028,159.65 359.138,165.04 366.664,165.04C374.189,165.04 380.299,159.65 380.299,153.011L380.299,119.931Z" style="fill:rgb(255,226,178);stroke:rgb(76,39,92);stroke-width:5.78px;"/>
            </g>
        </g>
    </g>
</svg>
